<mxfile host="Electron" agent="Mozilla/5.0 (Windows NT 10.0; Win64; x64) AppleWebKit/537.36 (KHTML, like Gecko) draw.io/28.1.2 Chrome/138.0.7204.243 Electron/37.4.0 Safari/537.36" version="28.1.2">
  <diagram name="Página-1" id="-QQwby5ke-ya0EEzA_-J">
    <mxGraphModel dx="1900" dy="1973" grid="1" gridSize="10" guides="1" tooltips="1" connect="1" arrows="1" fold="1" page="1" pageScale="1" pageWidth="827" pageHeight="1169" math="0" shadow="0">
      <root>
        <mxCell id="0" />
        <mxCell id="1" parent="0" />
        <mxCell id="jJV-C2dV9Q7t_B13mXzP-5" value="Alumno" style="swimlane;fontStyle=1;align=center;verticalAlign=top;childLayout=stackLayout;horizontal=1;startSize=26;horizontalStack=0;resizeParent=1;resizeParentMax=0;resizeLast=0;collapsible=1;marginBottom=0;whiteSpace=wrap;html=1;" parent="1" vertex="1">
          <mxGeometry x="450" y="70" width="270" height="270" as="geometry" />
        </mxCell>
        <mxCell id="jJV-C2dV9Q7t_B13mXzP-6" value="- Matricula : int&lt;div&gt;- Nombre :String&lt;/div&gt;&lt;div&gt;- Edad: int&lt;/div&gt;&lt;div&gt;- Genero: Char&lt;/div&gt;&lt;div&gt;- Carrera: String&lt;/div&gt;&lt;div&gt;- Correo: String&lt;/div&gt;&lt;div&gt;&lt;br&gt;&lt;/div&gt;&lt;div&gt;&lt;br&gt;&lt;/div&gt;&lt;div&gt;&lt;br&gt;&lt;/div&gt;" style="text;strokeColor=none;fillColor=none;align=left;verticalAlign=top;spacingLeft=4;spacingRight=4;overflow=hidden;rotatable=0;points=[[0,0.5],[1,0.5]];portConstraint=eastwest;whiteSpace=wrap;html=1;" parent="jJV-C2dV9Q7t_B13mXzP-5" vertex="1">
          <mxGeometry y="26" width="270" height="94" as="geometry" />
        </mxCell>
        <mxCell id="jJV-C2dV9Q7t_B13mXzP-7" value="" style="line;strokeWidth=1;fillColor=none;align=left;verticalAlign=middle;spacingTop=-1;spacingLeft=3;spacingRight=3;rotatable=0;labelPosition=right;points=[];portConstraint=eastwest;strokeColor=inherit;" parent="jJV-C2dV9Q7t_B13mXzP-5" vertex="1">
          <mxGeometry y="120" width="270" height="8" as="geometry" />
        </mxCell>
        <mxCell id="jJV-C2dV9Q7t_B13mXzP-8" value="&lt;div&gt;+ GetNombre(): String&lt;/div&gt;&lt;div&gt;&lt;br&gt;&lt;/div&gt;&lt;div&gt;+ GetEdad(): Int&lt;/div&gt;&lt;div&gt;&lt;br&gt;&lt;/div&gt;&lt;div&gt;+ GetGenero(): Char&lt;/div&gt;&lt;div&gt;&lt;br&gt;&lt;/div&gt;&lt;div&gt;+ GetCarrera(): String&lt;/div&gt;&lt;div&gt;&lt;br&gt;&lt;/div&gt;&lt;div&gt;+ GetCorreo(): String&lt;/div&gt;" style="text;strokeColor=none;fillColor=none;align=left;verticalAlign=top;spacingLeft=4;spacingRight=4;overflow=hidden;rotatable=0;points=[[0,0.5],[1,0.5]];portConstraint=eastwest;whiteSpace=wrap;html=1;" parent="jJV-C2dV9Q7t_B13mXzP-5" vertex="1">
          <mxGeometry y="128" width="270" height="142" as="geometry" />
        </mxCell>
        <mxCell id="jJV-C2dV9Q7t_B13mXzP-13" value="Cuenta" style="swimlane;fontStyle=1;align=center;verticalAlign=top;childLayout=stackLayout;horizontal=1;startSize=26;horizontalStack=0;resizeParent=1;resizeParentMax=0;resizeLast=0;collapsible=1;marginBottom=0;whiteSpace=wrap;html=1;" parent="1" vertex="1">
          <mxGeometry x="890" y="70" width="290" height="400" as="geometry">
            <mxRectangle x="580" y="160" width="80" height="30" as="alternateBounds" />
          </mxGeometry>
        </mxCell>
        <mxCell id="jJV-C2dV9Q7t_B13mXzP-14" value="&lt;div&gt;- IdCuenta: String&lt;/div&gt;&lt;div&gt;- AlumnoAsociado: Alumno&lt;/div&gt;&lt;div&gt;- HashContraseña: String&lt;/div&gt;&lt;div&gt;- FechaRegistro: Date&lt;/div&gt;&lt;div&gt;- EstadoCuenta: (&lt;strong style=&quot;background-color: transparent; color: light-dark(rgb(0, 0, 0), rgb(255, 255, 255));&quot; data-end=&quot;769&quot; data-start=&quot;761&quot;&gt;enum:&amp;nbsp;&lt;/strong&gt;&lt;code style=&quot;background-color: transparent; color: light-dark(rgb(0, 0, 0), rgb(255, 255, 255));&quot; data-end=&quot;779&quot; data-start=&quot;771&quot;&gt;ACTIVO&lt;/code&gt;&lt;span style=&quot;background-color: transparent; color: light-dark(rgb(0, 0, 0), rgb(255, 255, 255));&quot;&gt;, &lt;/span&gt;&lt;code style=&quot;background-color: transparent; color: light-dark(rgb(0, 0, 0), rgb(255, 255, 255));&quot; data-end=&quot;793&quot; data-start=&quot;781&quot;&gt;SUSPENDIDO&lt;/code&gt;&lt;span style=&quot;background-color: transparent; color: light-dark(rgb(0, 0, 0), rgb(255, 255, 255));&quot;&gt;, &lt;span style=&quot;white-space: pre;&quot;&gt;&#x9;&lt;/span&gt;&lt;/span&gt;&lt;code style=&quot;background-color: transparent; color: light-dark(rgb(0, 0, 0), rgb(255, 255, 255));&quot; data-end=&quot;806&quot; data-start=&quot;795&quot;&gt;ELIMINADO&lt;/code&gt;&lt;span style=&quot;background-color: transparent; color: light-dark(rgb(0, 0, 0), rgb(255, 255, 255));&quot;&gt;)&lt;/span&gt;&lt;/div&gt;" style="text;strokeColor=none;fillColor=none;align=left;verticalAlign=top;spacingLeft=4;spacingRight=4;overflow=hidden;rotatable=0;points=[[0,0.5],[1,0.5]];portConstraint=eastwest;whiteSpace=wrap;html=1;" parent="jJV-C2dV9Q7t_B13mXzP-13" vertex="1">
          <mxGeometry y="26" width="290" height="94" as="geometry" />
        </mxCell>
        <mxCell id="jJV-C2dV9Q7t_B13mXzP-15" value="" style="line;strokeWidth=1;fillColor=none;align=left;verticalAlign=middle;spacingTop=-1;spacingLeft=3;spacingRight=3;rotatable=0;labelPosition=right;points=[];portConstraint=eastwest;strokeColor=inherit;" parent="jJV-C2dV9Q7t_B13mXzP-13" vertex="1">
          <mxGeometry y="120" width="290" height="8" as="geometry" />
        </mxCell>
        <mxCell id="jJV-C2dV9Q7t_B13mXzP-16" value="+ RegistrarCuenta(Matricula: Int, Contraseña: &lt;span style=&quot;white-space: pre;&quot;&gt;&#x9;&lt;/span&gt;String): Cuenta&lt;div&gt;&lt;br&gt;&lt;div&gt;+ IniciarSesion(Matricula: int, Contraseña: String): &lt;span style=&quot;white-space: pre;&quot;&gt;&#x9;&lt;/span&gt;Bool&lt;/div&gt;&lt;div&gt;&lt;br&gt;&lt;/div&gt;&lt;div&gt;+ EliminarCuenta(&lt;span style=&quot;background-color: transparent; color: light-dark(rgb(0, 0, 0), rgb(255, 255, 255));&quot;&gt;): Bool&lt;/span&gt;&lt;/div&gt;&lt;/div&gt;&lt;div&gt;&lt;br&gt;&lt;/div&gt;&lt;div&gt;+ EditarContraseña(Contraseña: String, &lt;span style=&quot;white-space: pre;&quot;&gt;&#x9;&lt;/span&gt;NuevaContraseña: String):Bool&lt;/div&gt;&lt;div&gt;&lt;br&gt;&lt;/div&gt;&lt;div&gt;+ GetFechaRegistro():String&lt;/div&gt;&lt;div&gt;&lt;br&gt;&lt;/div&gt;&lt;div&gt;+ GetEstado():(enum: ACTIVO, SUSPENDIDO, &lt;span style=&quot;white-space: pre;&quot;&gt;&#x9;&lt;/span&gt;ELIMINADO)&lt;/div&gt;&lt;div&gt;&lt;br&gt;&lt;/div&gt;&lt;div&gt;+ SetFechaRegistro(FechaRegistro: Date):void&lt;/div&gt;&lt;div&gt;+ SetEstado(Estado: Char): void&lt;/div&gt;" style="text;strokeColor=none;fillColor=none;align=left;verticalAlign=top;spacingLeft=4;spacingRight=4;overflow=hidden;rotatable=0;points=[[0,0.5],[1,0.5]];portConstraint=eastwest;whiteSpace=wrap;html=1;" parent="jJV-C2dV9Q7t_B13mXzP-13" vertex="1">
          <mxGeometry y="128" width="290" height="272" as="geometry" />
        </mxCell>
        <mxCell id="jJV-C2dV9Q7t_B13mXzP-17" value="Perfil" style="swimlane;fontStyle=1;align=center;verticalAlign=top;childLayout=stackLayout;horizontal=1;startSize=26;horizontalStack=0;resizeParent=1;resizeParentMax=0;resizeLast=0;collapsible=1;marginBottom=0;whiteSpace=wrap;html=1;" parent="1" vertex="1">
          <mxGeometry x="1340" y="100" width="250" height="250" as="geometry" />
        </mxCell>
        <mxCell id="jJV-C2dV9Q7t_B13mXzP-18" value="&lt;div&gt;- CuentaAsociada: Cuenta&lt;/div&gt;- NikName: String&lt;div&gt;- FotoPerfil: Image&lt;/div&gt;&lt;div&gt;- Boigrafia: String&lt;/div&gt;&lt;div&gt;- Preferencias: Preferencia&lt;/div&gt;" style="text;strokeColor=none;fillColor=none;align=left;verticalAlign=top;spacingLeft=4;spacingRight=4;overflow=hidden;rotatable=0;points=[[0,0.5],[1,0.5]];portConstraint=eastwest;whiteSpace=wrap;html=1;" parent="jJV-C2dV9Q7t_B13mXzP-17" vertex="1">
          <mxGeometry y="26" width="250" height="64" as="geometry" />
        </mxCell>
        <mxCell id="jJV-C2dV9Q7t_B13mXzP-19" value="" style="line;strokeWidth=1;fillColor=none;align=left;verticalAlign=middle;spacingTop=-1;spacingLeft=3;spacingRight=3;rotatable=0;labelPosition=right;points=[];portConstraint=eastwest;strokeColor=inherit;" parent="jJV-C2dV9Q7t_B13mXzP-17" vertex="1">
          <mxGeometry y="90" width="250" height="8" as="geometry" />
        </mxCell>
        <mxCell id="jJV-C2dV9Q7t_B13mXzP-20" value="+ EditarNikname(NiknameNuevo:String): void&lt;div&gt;&lt;br&gt;&lt;/div&gt;&lt;div&gt;+ EditarFotoPerfil(NuevaFoto: Image): void&lt;/div&gt;&lt;div&gt;&lt;br&gt;&lt;/div&gt;&lt;div&gt;+ EditarBiografia(NuevBiografia: String): void&lt;/div&gt;&lt;div&gt;&lt;br&gt;&lt;/div&gt;&lt;div&gt;+ ActualizarPerfil(): Bool&lt;/div&gt;&lt;div&gt;&lt;br&gt;&lt;/div&gt;&lt;div&gt;+ DarLike(PerfilReceptor: Perfil): Match&lt;/div&gt;&lt;div&gt;&lt;br&gt;&lt;/div&gt;" style="text;strokeColor=none;fillColor=none;align=left;verticalAlign=top;spacingLeft=4;spacingRight=4;overflow=hidden;rotatable=0;points=[[0,0.5],[1,0.5]];portConstraint=eastwest;whiteSpace=wrap;html=1;" parent="jJV-C2dV9Q7t_B13mXzP-17" vertex="1">
          <mxGeometry y="98" width="250" height="152" as="geometry" />
        </mxCell>
        <mxCell id="jJV-C2dV9Q7t_B13mXzP-21" value="HashUtil" style="swimlane;fontStyle=1;align=center;verticalAlign=top;childLayout=stackLayout;horizontal=1;startSize=26;horizontalStack=0;resizeParent=1;resizeParentMax=0;resizeLast=0;collapsible=1;marginBottom=0;whiteSpace=wrap;html=1;" parent="1" vertex="1">
          <mxGeometry x="920" y="-160" width="230" height="110" as="geometry" />
        </mxCell>
        <mxCell id="jJV-C2dV9Q7t_B13mXzP-22" value="&lt;div&gt;&lt;span style=&quot;background-color: transparent; color: light-dark(rgb(0, 0, 0), rgb(255, 255, 255));&quot;&gt;- Contraseña:String&lt;/span&gt;&lt;/div&gt;" style="text;strokeColor=none;fillColor=none;align=left;verticalAlign=top;spacingLeft=4;spacingRight=4;overflow=hidden;rotatable=0;points=[[0,0.5],[1,0.5]];portConstraint=eastwest;whiteSpace=wrap;html=1;" parent="jJV-C2dV9Q7t_B13mXzP-21" vertex="1">
          <mxGeometry y="26" width="230" height="26" as="geometry" />
        </mxCell>
        <mxCell id="jJV-C2dV9Q7t_B13mXzP-23" value="" style="line;strokeWidth=1;fillColor=none;align=left;verticalAlign=middle;spacingTop=-1;spacingLeft=3;spacingRight=3;rotatable=0;labelPosition=right;points=[];portConstraint=eastwest;strokeColor=inherit;" parent="jJV-C2dV9Q7t_B13mXzP-21" vertex="1">
          <mxGeometry y="52" width="230" height="8" as="geometry" />
        </mxCell>
        <mxCell id="jJV-C2dV9Q7t_B13mXzP-24" value="+ HashContraseña(Contraseña: String): String&lt;div&gt;&lt;br&gt;&lt;/div&gt;" style="text;strokeColor=none;fillColor=none;align=left;verticalAlign=top;spacingLeft=4;spacingRight=4;overflow=hidden;rotatable=0;points=[[0,0.5],[1,0.5]];portConstraint=eastwest;whiteSpace=wrap;html=1;" parent="jJV-C2dV9Q7t_B13mXzP-21" vertex="1">
          <mxGeometry y="60" width="230" height="50" as="geometry" />
        </mxCell>
        <mxCell id="T6HbZ_ULhb3sNTu3_hh0-1" value="Preferencias" style="swimlane;fontStyle=1;align=center;verticalAlign=top;childLayout=stackLayout;horizontal=1;startSize=26;horizontalStack=0;resizeParent=1;resizeParentMax=0;resizeLast=0;collapsible=1;marginBottom=0;whiteSpace=wrap;html=1;" parent="1" vertex="1">
          <mxGeometry x="1748" y="115" width="320" height="250" as="geometry" />
        </mxCell>
        <mxCell id="T6HbZ_ULhb3sNTu3_hh0-2" value="&lt;div&gt;&lt;span style=&quot;background-color: transparent; color: light-dark(rgb(0, 0, 0), rgb(255, 255, 255));&quot;&gt;- PerfilAsociado: Perfil&lt;/span&gt;&lt;/div&gt;- PreferenciaGenero: Char&lt;div&gt;- EdadMaxima: int&lt;/div&gt;&lt;div&gt;- EdadMinima: int&lt;/div&gt;&lt;div&gt;- PreferenciasCarrera: List&amp;lt;String&amp;gt;&lt;/div&gt;&lt;div&gt;- InteresesBuscados: List&amp;lt;String&amp;gt;&lt;/div&gt;&lt;div&gt;&lt;br&gt;&lt;/div&gt;" style="text;strokeColor=none;fillColor=none;align=left;verticalAlign=top;spacingLeft=4;spacingRight=4;overflow=hidden;rotatable=0;points=[[0,0.5],[1,0.5]];portConstraint=eastwest;whiteSpace=wrap;html=1;" parent="T6HbZ_ULhb3sNTu3_hh0-1" vertex="1">
          <mxGeometry y="26" width="320" height="104" as="geometry" />
        </mxCell>
        <mxCell id="T6HbZ_ULhb3sNTu3_hh0-3" value="" style="line;strokeWidth=1;fillColor=none;align=left;verticalAlign=middle;spacingTop=-1;spacingLeft=3;spacingRight=3;rotatable=0;labelPosition=right;points=[];portConstraint=eastwest;strokeColor=inherit;" parent="T6HbZ_ULhb3sNTu3_hh0-1" vertex="1">
          <mxGeometry y="130" width="320" height="8" as="geometry" />
        </mxCell>
        <mxCell id="T6HbZ_ULhb3sNTu3_hh0-4" value="+ SetPreferenciaGenero(PreferenciaGenero:Char):void&lt;div&gt;&lt;br&gt;&lt;div&gt;+ SetEdadMaxima(EdadMaxima: int):void&lt;/div&gt;&lt;div&gt;&lt;br&gt;&lt;/div&gt;&lt;div&gt;+ SetEdadMinima(EdadMinima:Int):void&lt;/div&gt;&lt;div&gt;&lt;br&gt;&lt;/div&gt;&lt;div&gt;+ SetPreferenciaCarrera(PreferenciaCarrera: String): void&lt;/div&gt;&lt;div&gt;&lt;br&gt;&lt;/div&gt;&lt;/div&gt;" style="text;strokeColor=none;fillColor=none;align=left;verticalAlign=top;spacingLeft=4;spacingRight=4;overflow=hidden;rotatable=0;points=[[0,0.5],[1,0.5]];portConstraint=eastwest;whiteSpace=wrap;html=1;" parent="T6HbZ_ULhb3sNTu3_hh0-1" vertex="1">
          <mxGeometry y="138" width="320" height="112" as="geometry" />
        </mxCell>
        <mxCell id="T6HbZ_ULhb3sNTu3_hh0-5" value="Match" style="swimlane;fontStyle=1;align=center;verticalAlign=top;childLayout=stackLayout;horizontal=1;startSize=26;horizontalStack=0;resizeParent=1;resizeParentMax=0;resizeLast=0;collapsible=1;marginBottom=0;whiteSpace=wrap;html=1;" parent="1" vertex="1">
          <mxGeometry x="1350" y="470" width="230" height="180" as="geometry" />
        </mxCell>
        <mxCell id="T6HbZ_ULhb3sNTu3_hh0-6" value="&lt;div&gt;- IdMatch: String&lt;/div&gt;- PerfilEmisor: Perfil&lt;div&gt;- PerflReceptor: Perfil&lt;/div&gt;&lt;div&gt;- Estado: (&lt;b&gt;enum&lt;/b&gt;: ESPERA, ACEPTADO, &lt;span style=&quot;white-space: pre;&quot;&gt;&#x9;&lt;/span&gt;RECHAZADO)&lt;/div&gt;&lt;div&gt;- FechaMatch: Date&lt;/div&gt;&lt;div&gt;&lt;div&gt;&lt;br&gt;&lt;/div&gt;&lt;/div&gt;" style="text;strokeColor=none;fillColor=none;align=left;verticalAlign=top;spacingLeft=4;spacingRight=4;overflow=hidden;rotatable=0;points=[[0,0.5],[1,0.5]];portConstraint=eastwest;whiteSpace=wrap;html=1;" parent="T6HbZ_ULhb3sNTu3_hh0-5" vertex="1">
          <mxGeometry y="26" width="230" height="94" as="geometry" />
        </mxCell>
        <mxCell id="T6HbZ_ULhb3sNTu3_hh0-7" value="" style="line;strokeWidth=1;fillColor=none;align=left;verticalAlign=middle;spacingTop=-1;spacingLeft=3;spacingRight=3;rotatable=0;labelPosition=right;points=[];portConstraint=eastwest;strokeColor=inherit;" parent="T6HbZ_ULhb3sNTu3_hh0-5" vertex="1">
          <mxGeometry y="120" width="230" height="8" as="geometry" />
        </mxCell>
        <mxCell id="T6HbZ_ULhb3sNTu3_hh0-8" value="+ AceptarMatch():Void&lt;div&gt;&lt;br&gt;&lt;/div&gt;&lt;div&gt;+ RechazarMatch(): Void&lt;/div&gt;" style="text;strokeColor=none;fillColor=none;align=left;verticalAlign=top;spacingLeft=4;spacingRight=4;overflow=hidden;rotatable=0;points=[[0,0.5],[1,0.5]];portConstraint=eastwest;whiteSpace=wrap;html=1;" parent="T6HbZ_ULhb3sNTu3_hh0-5" vertex="1">
          <mxGeometry y="128" width="230" height="52" as="geometry" />
        </mxCell>
        <mxCell id="hc1hr7ei47F1FJEinHe0-1" value="Chat" style="swimlane;fontStyle=1;align=center;verticalAlign=top;childLayout=stackLayout;horizontal=1;startSize=26;horizontalStack=0;resizeParent=1;resizeParentMax=0;resizeLast=0;collapsible=1;marginBottom=0;whiteSpace=wrap;html=1;" parent="1" vertex="1">
          <mxGeometry x="990" y="500" width="220" height="178" as="geometry" />
        </mxCell>
        <mxCell id="hc1hr7ei47F1FJEinHe0-2" value="&lt;div&gt;- IdMatch: String&lt;/div&gt;- MatchAsociado: Match&lt;div&gt;- Mensajes: List&amp;lt;Mensaje&amp;gt;&lt;/div&gt;&lt;div&gt;- FechaCreacion: Date&amp;nbsp;&lt;/div&gt;" style="text;strokeColor=none;fillColor=none;align=left;verticalAlign=top;spacingLeft=4;spacingRight=4;overflow=hidden;rotatable=0;points=[[0,0.5],[1,0.5]];portConstraint=eastwest;whiteSpace=wrap;html=1;" parent="hc1hr7ei47F1FJEinHe0-1" vertex="1">
          <mxGeometry y="26" width="220" height="64" as="geometry" />
        </mxCell>
        <mxCell id="hc1hr7ei47F1FJEinHe0-3" value="" style="line;strokeWidth=1;fillColor=none;align=left;verticalAlign=middle;spacingTop=-1;spacingLeft=3;spacingRight=3;rotatable=0;labelPosition=right;points=[];portConstraint=eastwest;strokeColor=inherit;" parent="hc1hr7ei47F1FJEinHe0-1" vertex="1">
          <mxGeometry y="90" width="220" height="8" as="geometry" />
        </mxCell>
        <mxCell id="hc1hr7ei47F1FJEinHe0-4" value="+ EnviarMensaje(Contenido: &lt;span style=&quot;white-space: pre;&quot;&gt;&#x9;&lt;/span&gt;Mensaje, &lt;span style=&quot;white-space: pre;&quot;&gt;&#x9;&lt;/span&gt;Remitente: Perfil): Bool&lt;div&gt;&lt;br&gt;&lt;/div&gt;&lt;div&gt;+ CerrarChat(): void&lt;/div&gt;&lt;div&gt;&lt;br&gt;&lt;/div&gt;&lt;div&gt;+ AbrirChat(): List&amp;lt;Mensaje&amp;gt;&lt;/div&gt;" style="text;strokeColor=none;fillColor=none;align=left;verticalAlign=top;spacingLeft=4;spacingRight=4;overflow=hidden;rotatable=0;points=[[0,0.5],[1,0.5]];portConstraint=eastwest;whiteSpace=wrap;html=1;" parent="hc1hr7ei47F1FJEinHe0-1" vertex="1">
          <mxGeometry y="98" width="220" height="80" as="geometry" />
        </mxCell>
        <mxCell id="G2m6hKuUC6ITpjiXs0Zb-2" value="Mensaje" style="swimlane;fontStyle=1;align=center;verticalAlign=top;childLayout=stackLayout;horizontal=1;startSize=26;horizontalStack=0;resizeParent=1;resizeParentMax=0;resizeLast=0;collapsible=1;marginBottom=0;whiteSpace=wrap;html=1;" parent="1" vertex="1">
          <mxGeometry x="700" y="520" width="170" height="150" as="geometry" />
        </mxCell>
        <mxCell id="G2m6hKuUC6ITpjiXs0Zb-3" value="&lt;div&gt;- IdMensaje: Int&lt;/div&gt;- Remitente: Perfil&lt;div&gt;- FechaEnvio: Date&lt;/div&gt;&lt;div&gt;- ConfirmacionLectura: Bool&amp;nbsp;&lt;/div&gt;&lt;div&gt;- Contenido: String&lt;/div&gt;" style="text;strokeColor=none;fillColor=none;align=left;verticalAlign=top;spacingLeft=4;spacingRight=4;overflow=hidden;rotatable=0;points=[[0,0.5],[1,0.5]];portConstraint=eastwest;whiteSpace=wrap;html=1;" parent="G2m6hKuUC6ITpjiXs0Zb-2" vertex="1">
          <mxGeometry y="26" width="170" height="64" as="geometry" />
        </mxCell>
        <mxCell id="G2m6hKuUC6ITpjiXs0Zb-4" value="" style="line;strokeWidth=1;fillColor=none;align=left;verticalAlign=middle;spacingTop=-1;spacingLeft=3;spacingRight=3;rotatable=0;labelPosition=right;points=[];portConstraint=eastwest;strokeColor=inherit;" parent="G2m6hKuUC6ITpjiXs0Zb-2" vertex="1">
          <mxGeometry y="90" width="170" height="8" as="geometry" />
        </mxCell>
        <mxCell id="G2m6hKuUC6ITpjiXs0Zb-5" value="+ EliminarMensaje(): void&lt;div&gt;&lt;br&gt;&lt;/div&gt;&lt;div&gt;+ ConfirmarLectura(): void&lt;/div&gt;" style="text;strokeColor=none;fillColor=none;align=left;verticalAlign=top;spacingLeft=4;spacingRight=4;overflow=hidden;rotatable=0;points=[[0,0.5],[1,0.5]];portConstraint=eastwest;whiteSpace=wrap;html=1;" parent="G2m6hKuUC6ITpjiXs0Zb-2" vertex="1">
          <mxGeometry y="98" width="170" height="52" as="geometry" />
        </mxCell>
        <mxCell id="G2m6hKuUC6ITpjiXs0Zb-7" value="1" style="endArrow=open;html=1;endSize=12;startArrow=diamondThin;startSize=14;startFill=1;edgeStyle=orthogonalEdgeStyle;align=left;verticalAlign=bottom;rounded=0;exitX=1;exitY=0.5;exitDx=0;exitDy=0;entryX=0;entryY=0.5;entryDx=0;entryDy=0;" parent="1" source="jJV-C2dV9Q7t_B13mXzP-6" target="jJV-C2dV9Q7t_B13mXzP-14" edge="1">
          <mxGeometry x="-1" y="3" relative="1" as="geometry">
            <mxPoint x="720" y="460" as="sourcePoint" />
            <mxPoint x="880" y="460" as="targetPoint" />
          </mxGeometry>
        </mxCell>
        <mxCell id="G2m6hKuUC6ITpjiXs0Zb-11" value="1" style="endArrow=open;html=1;endSize=12;startArrow=diamondThin;startSize=14;startFill=1;edgeStyle=orthogonalEdgeStyle;align=left;verticalAlign=bottom;rounded=0;exitX=1;exitY=0.5;exitDx=0;exitDy=0;entryX=0;entryY=0.5;entryDx=0;entryDy=0;" parent="1" source="jJV-C2dV9Q7t_B13mXzP-14" target="jJV-C2dV9Q7t_B13mXzP-18" edge="1">
          <mxGeometry x="-1" y="3" relative="1" as="geometry">
            <mxPoint x="720" y="310" as="sourcePoint" />
            <mxPoint x="880" y="310" as="targetPoint" />
          </mxGeometry>
        </mxCell>
        <mxCell id="G2m6hKuUC6ITpjiXs0Zb-12" value="*" style="text;html=1;align=center;verticalAlign=middle;resizable=0;points=[];autosize=1;strokeColor=none;fillColor=none;" parent="1" vertex="1">
          <mxGeometry x="1310" y="130" width="30" height="30" as="geometry" />
        </mxCell>
        <mxCell id="G2m6hKuUC6ITpjiXs0Zb-13" style="edgeStyle=orthogonalEdgeStyle;rounded=0;orthogonalLoop=1;jettySize=auto;html=1;entryX=0.5;entryY=0;entryDx=0;entryDy=0;endArrow=none;endFill=0;" parent="1" source="jJV-C2dV9Q7t_B13mXzP-20" target="T6HbZ_ULhb3sNTu3_hh0-5" edge="1">
          <mxGeometry relative="1" as="geometry" />
        </mxCell>
        <mxCell id="G2m6hKuUC6ITpjiXs0Zb-14" value="*" style="text;html=1;align=center;verticalAlign=middle;resizable=0;points=[];autosize=1;strokeColor=none;fillColor=none;" parent="1" vertex="1">
          <mxGeometry x="1310" y="248" width="30" height="30" as="geometry" />
        </mxCell>
        <mxCell id="G2m6hKuUC6ITpjiXs0Zb-15" value="*" style="text;html=1;align=center;verticalAlign=middle;resizable=0;points=[];autosize=1;strokeColor=none;fillColor=none;" parent="1" vertex="1">
          <mxGeometry x="1440" y="450" width="30" height="30" as="geometry" />
        </mxCell>
        <mxCell id="G2m6hKuUC6ITpjiXs0Zb-16" value="1" style="endArrow=open;html=1;endSize=12;startArrow=diamondThin;startSize=14;startFill=1;edgeStyle=orthogonalEdgeStyle;align=left;verticalAlign=bottom;rounded=0;exitX=0;exitY=0.5;exitDx=0;exitDy=0;entryX=1;entryY=0.5;entryDx=0;entryDy=0;" parent="1" source="T6HbZ_ULhb3sNTu3_hh0-6" target="hc1hr7ei47F1FJEinHe0-2" edge="1">
          <mxGeometry x="-1" y="3" relative="1" as="geometry">
            <mxPoint x="1030" y="540" as="sourcePoint" />
            <mxPoint x="1190" y="540" as="targetPoint" />
          </mxGeometry>
        </mxCell>
        <mxCell id="G2m6hKuUC6ITpjiXs0Zb-17" value="1" style="text;html=1;align=center;verticalAlign=middle;resizable=0;points=[];autosize=1;strokeColor=none;fillColor=none;" parent="1" vertex="1">
          <mxGeometry x="1320" y="520" width="30" height="30" as="geometry" />
        </mxCell>
        <mxCell id="G2m6hKuUC6ITpjiXs0Zb-18" value="1" style="text;html=1;align=center;verticalAlign=middle;resizable=0;points=[];autosize=1;strokeColor=none;fillColor=none;" parent="1" vertex="1">
          <mxGeometry x="1220" y="530" width="30" height="30" as="geometry" />
        </mxCell>
        <mxCell id="G2m6hKuUC6ITpjiXs0Zb-19" value="1" style="text;html=1;align=center;verticalAlign=middle;resizable=0;points=[];autosize=1;strokeColor=none;fillColor=none;" parent="1" vertex="1">
          <mxGeometry x="855" y="120" width="30" height="30" as="geometry" />
        </mxCell>
        <mxCell id="G2m6hKuUC6ITpjiXs0Zb-20" value="1" style="endArrow=open;html=1;endSize=12;startArrow=diamondThin;startSize=14;startFill=1;edgeStyle=orthogonalEdgeStyle;align=left;verticalAlign=bottom;rounded=0;exitX=0;exitY=0.5;exitDx=0;exitDy=0;entryX=1;entryY=0.5;entryDx=0;entryDy=0;" parent="1" source="hc1hr7ei47F1FJEinHe0-2" target="G2m6hKuUC6ITpjiXs0Zb-3" edge="1">
          <mxGeometry x="-1" y="3" relative="1" as="geometry">
            <mxPoint x="740" y="540" as="sourcePoint" />
            <mxPoint x="900" y="540" as="targetPoint" />
          </mxGeometry>
        </mxCell>
        <mxCell id="G2m6hKuUC6ITpjiXs0Zb-21" value="1" style="text;html=1;align=center;verticalAlign=middle;resizable=0;points=[];autosize=1;strokeColor=none;fillColor=none;" parent="1" vertex="1">
          <mxGeometry x="960" y="520" width="30" height="30" as="geometry" />
        </mxCell>
        <mxCell id="G2m6hKuUC6ITpjiXs0Zb-22" value="*" style="text;html=1;align=center;verticalAlign=middle;resizable=0;points=[];autosize=1;strokeColor=none;fillColor=none;" parent="1" vertex="1">
          <mxGeometry x="870" y="550" width="30" height="30" as="geometry" />
        </mxCell>
        <mxCell id="G2m6hKuUC6ITpjiXs0Zb-23" value="Use" style="endArrow=open;endSize=12;dashed=1;html=1;rounded=0;entryX=0.505;entryY=0.925;entryDx=0;entryDy=0;entryPerimeter=0;exitX=0.5;exitY=0;exitDx=0;exitDy=0;" parent="1" source="jJV-C2dV9Q7t_B13mXzP-13" target="jJV-C2dV9Q7t_B13mXzP-24" edge="1">
          <mxGeometry width="160" relative="1" as="geometry">
            <mxPoint x="990" y="40" as="sourcePoint" />
            <mxPoint x="1150" y="40" as="targetPoint" />
          </mxGeometry>
        </mxCell>
        <mxCell id="G2m6hKuUC6ITpjiXs0Zb-24" value="1" style="endArrow=open;html=1;endSize=12;startArrow=diamondThin;startSize=14;startFill=1;edgeStyle=orthogonalEdgeStyle;align=left;verticalAlign=bottom;rounded=0;exitX=1;exitY=0.5;exitDx=0;exitDy=0;entryX=0;entryY=0.5;entryDx=0;entryDy=0;" parent="1" source="jJV-C2dV9Q7t_B13mXzP-18" target="T6HbZ_ULhb3sNTu3_hh0-2" edge="1">
          <mxGeometry x="-1" y="3" relative="1" as="geometry">
            <mxPoint x="1770" y="260" as="sourcePoint" />
            <mxPoint x="1930" y="260" as="targetPoint" />
          </mxGeometry>
        </mxCell>
        <mxCell id="G2m6hKuUC6ITpjiXs0Zb-25" value="1" style="text;html=1;align=center;verticalAlign=middle;resizable=0;points=[];autosize=1;strokeColor=none;fillColor=none;" parent="1" vertex="1">
          <mxGeometry x="1715" y="148" width="30" height="30" as="geometry" />
        </mxCell>
      </root>
    </mxGraphModel>
  </diagram>
</mxfile>
